<svg
  width="21"
  height="20"
  viewBox="0 0 21 20"
  fill="none"
  xmlns="http://www.w3.org/2000/svg"
>
<g clip-path="url(#clip0_4_17)">
<path
      d="M18.7943 3.14877H2.30994C1.34068 3.14877 0.552124 3.93733 0.552124 4.90659V15.0934C0.552124 16.0626 1.34068 16.8512 2.30994 16.8512H18.7943C19.7636 16.8512 20.5521 16.0626 20.5521 15.0934V4.90659C20.5521 3.93733 19.7636 3.14877 18.7943 3.14877ZM18.5649 4.32065L18.3303 4.516L11.2495 10.4121C10.8454 10.7486 10.2588 10.7486 9.8547 10.4121L2.77396 4.516L2.53935 4.32065H18.5649ZM1.724 5.16666L7.49322 9.97069L1.724 13.8103V5.16666ZM18.7943 15.6793H2.30994C2.02681 15.6793 1.79001 15.4774 1.73576 15.2101L8.43283 10.7531L9.10486 11.3127C9.52416 11.6618 10.0382 11.8364 10.5522 11.8364C11.0661 11.8364 11.5801 11.6618 11.9995 11.3127L12.6715 10.7531L19.3685 15.2101C19.3142 15.4775 19.0774 15.6793 18.7943 15.6793ZM19.3802 13.8103L13.611 9.97073L19.3802 5.16666V13.8103Z"
      fill="#303030"
    />
</g>
<defs>
<clipPath id="clip0_4_17">
<rect width="20" height="20" fill="white" transform="translate(0.552124)" />
</clipPath>
</defs>
</svg>
